<?xml version="1.0" standalone="no"?>
<!DOCTYPE svg PUBLIC "-//W3C//DTD SVG 20010904//EN"
 "http://www.w3.org/TR/2001/REC-SVG-20010904/DTD/svg10.dtd">
<svg version="1.0" xmlns="http://www.w3.org/2000/svg"
 width="512.000000pt" height="512.000000pt" viewBox="0 0 512.000000 512.000000"
 preserveAspectRatio="xMidYMid meet">

<g transform="translate(0.000000,512.000000) scale(0.100000,-0.100000)"
fill="#ffffff" stroke="none">
<path d="M2408 4827 c-212 -73 -343 -272 -324 -495 3 -41 17 -100 30 -132 l23
-59 -102 -50 c-309 -151 -543 -431 -630 -753 -10 -37 -72 -338 -139 -668
l-121 -602 -72 -28 c-228 -88 -376 -301 -377 -540 0 -106 16 -174 62 -270 64
-131 208 -253 357 -301 28 -9 148 -15 410 -18 l370 -6 6 -55 c31 -271 244
-505 515 -565 107 -24 263 -16 359 18 207 73 359 229 420 432 13 44 27 101 30
128 l6 47 346 0 c386 0 414 4 537 68 135 71 235 190 282 337 62 192 17 411
-116 566 -52 61 -161 135 -241 163 l-64 24 -126 624 c-136 674 -159 762 -243
907 -126 221 -289 375 -513 487 l-112 56 14 29 c21 40 45 146 45 201 1 324
-326 559 -632 455z m232 -319 c72 -50 95 -116 65 -193 -24 -64 -72 -95 -145
-95 -73 0 -115 26 -142 87 -47 108 26 223 142 223 32 0 57 -7 80 -22z m98
-634 c151 -30 301 -109 419 -218 110 -103 187 -219 235 -356 10 -30 82 -367
158 -748 108 -536 144 -700 161 -723 28 -39 82 -65 150 -72 190 -18 298 -210
215 -380 -15 -31 -44 -70 -64 -87 -77 -63 6 -60 -1452 -60 -1164 0 -1332 2
-1371 15 -177 61 -232 300 -99 433 47 47 100 71 180 81 73 10 115 31 144 76
10 16 71 295 156 718 76 381 148 717 158 747 101 290 350 509 654 575 87 19
262 18 356 -1z m161 -3015 c-25 -109 -113 -210 -217 -249 -46 -18 -72 -21
-137 -18 -96 5 -155 29 -219 88 -50 46 -106 147 -106 192 l0 28 344 0 344 0
-9 -41z"/>
<path d="M1362 4245 c-82 -36 -305 -251 -422 -407 -164 -220 -293 -503 -346
-759 l-18 -86 25 -49 c53 -107 185 -125 261 -36 17 20 33 62 48 124 84 349
264 644 539 882 114 99 136 134 128 202 -6 55 -40 102 -91 125 -49 22 -80 23
-124 4z"/>
<path d="M3631 4238 c-58 -30 -83 -65 -89 -126 -6 -70 20 -110 132 -203 258
-214 475 -573 537 -890 27 -138 126 -201 233 -150 89 43 107 114 67 267 -95
371 -296 710 -569 964 -167 155 -228 182 -311 138z"/>
</g>
</svg>
